<svg width="1440" height="681" viewBox="0 0 1440 681" version="1.1" xmlns="http://www.w3.org/2000/svg" xmlns:xlink="http://www.w3.org/1999/xlink">
<g id="Canvas" fill="none">
<g id="Group">
<g id="Vector">
<path d="M 1.18485e-08 131.446C 330.779 -399.337 6.36112 867.783 449.255 582.313C 626.969 467.41 225.422 474.964 576.875 162.855C 928.327 -149.253 1440 296.048 1440 296.048" stroke-miterlimit="10" transform="translate(0 55.2289)" stroke="url(#paint0_linear)"/>
</g>
<g id="Vector_2">
<path d="M 1.18485e-08 132.1C 328.791 -395.502 13.5174 846.967 446.869 560.305C 621.005 444.606 237.747 460.907 581.645 158.739C 925.544 -143.43 1428.47 285.967 1440 279.606" stroke-miterlimit="10" transform="translate(0 62.129)" stroke="url(#paint1_linear)"/>
</g>
<g id="Vector_3">
<path d="M 1.18485e-08 132.464C 326.405 -391.163 20.6737 826.259 444.881 538.403C 615.439 421.909 250.469 446.958 586.814 154.729C 923.158 -137.5 1417.34 275.596 1440 262.873" stroke-miterlimit="10" transform="translate(0 68.9218)" stroke="url(#paint2_linear)"/>
</g>
<g id="Vector_4">
<path d="M 1.18485e-08 132.938C 324.02 -387.11 28.6251 806.456 442.496 516.612C 609.475 399.323 262.794 433.516 591.585 151.227C 920.375 -131.062 1405.41 265.733 1439.6 246.648" stroke-miterlimit="10" transform="translate(0 75.6045)" stroke="url(#paint3_linear)"/>
</g>
<g id="Vector_5">
<path d="M 1.18485e-08 133.478C 322.032 -382.992 36.1789 786.322 440.508 494.49C 604.307 376.406 275.516 419.346 596.753 146.996C 917.99 -125.353 1394.28 255.141 1439.6 229.695" stroke-miterlimit="10" transform="translate(0 82.6181)" stroke="url(#paint4_linear)"/>
</g>
<g id="Vector_6">
<path d="M 1.18485e-08 134.085C 319.647 -378.807 43.7328 765.856 438.123 472.832C 598.343 353.952 287.841 405.639 601.524 143.229C 915.207 -119.181 1383.15 245.41 1439.6 213.205" stroke-miterlimit="10" transform="translate(0 89.1685)" stroke="url(#paint5_linear)"/>
</g>
<g id="Vector_7">
<path d="M 1.18485e-08 134.728C 317.261 -374.585 51.2866 745.427 436.135 451.21C 592.777 331.536 300.166 391.969 606.692 139.499C 913.219 -112.97 1371.62 235.319 1439.6 196.752" stroke-miterlimit="10" transform="translate(0 95.6813)" stroke="url(#paint6_linear)"/>
</g>
<g id="Vector_8">
<path d="M 1.18485e-08 135.262C 315.273 -370.075 58.8404 724.889 433.749 429.479C 586.814 309.009 312.49 378.588 611.861 136.057C 911.231 -106.473 1360.09 225.515 1439.6 180.588" stroke-miterlimit="10" transform="translate(0 102.701)" stroke="url(#paint7_linear)"/>
</g>
<g id="Vector_9">
<path d="M 1.18485e-08 135.987C 312.888 -365.772 66.3943 704.541 431.761 407.939C 581.248 286.276 325.213 364.999 617.029 132.409C 908.846 -100.181 1348.96 215.505 1439.6 164.614" stroke-miterlimit="10" transform="translate(0 109.133)" stroke="url(#paint8_linear)"/>
</g>
<g id="Vector_10">
<path d="M 1.18485e-08 136.76C 310.9 -361.42 73.9481 684.242 429.376 386.049C 575.284 263.592 337.537 351.061 621.8 128.411C 906.063 -94.2397 1337.43 205.146 1439.6 147.893" stroke-miterlimit="10" transform="translate(0 115.517)" stroke="url(#paint9_linear)"/>
</g>
<g id="Vector_11">
<path d="M 1.18485e-08 137.578C 308.515 -357.024 81.5019 663.988 427.388 364.602C 569.718 241.349 350.26 337.964 626.968 125.253C 903.677 -87.4578 1326.29 195.627 1439.6 132.012" stroke-miterlimit="10" transform="translate(0 122.253)" stroke="url(#paint10_linear)"/>
</g>
<g id="Vector_12">
<path d="M 1.18485e-08 138.448C 306.129 -352.576 89.0558 643.785 425.4 343.207C 564.152 219.158 362.982 324.52 632.137 121.749C 901.292 -81.0222 1315.16 185.761 1439.6 115.785" stroke-miterlimit="10" transform="translate(0 128.54)" stroke="url(#paint11_linear)"/>
</g>
<g id="Vector_13">
<path d="M 1.18485e-08 139.372C 304.141 -348.074 96.2121 623.637 423.015 321.866C 558.189 196.625 375.306 311.131 636.908 118.299C 898.509 -74.532 1303.24 176.347 1439.6 99.6126" stroke-miterlimit="10" transform="translate(0 134.773)" stroke="url(#paint12_linear)"/>
</g>
<g id="Vector_14">
<path d="M 1.18485e-08 140.4C 301.756 -343.468 103.766 603.195 421.027 300.231C 553.02 174.195 388.029 297.845 642.474 114.556C 896.919 -68.7329 1292.5 166.243 1440 83.1466" stroke-miterlimit="10" transform="translate(0 141.299)" stroke="url(#paint13_linear)"/>
</g>
<g id="Vector_15">
<path d="M 1.18485e-08 141.289C 299.768 -338.603 111.32 583.011 418.642 278.855C 547.057 152.024 399.956 284.421 647.245 111.469C 894.533 -61.4825 1280.97 156.795 1439.6 67.3368" stroke-miterlimit="10" transform="translate(0 147.567)" stroke="url(#paint14_linear)"/>
</g>
<g id="Vector_16">
<path d="M 1.18485e-08 142.402C 297.383 -333.912 118.874 563.052 416.654 257.703C 541.491 129.679 412.678 271.221 652.413 108.209C 892.148 -54.8031 1269.44 147.173 1439.6 51.7511" stroke-miterlimit="10" transform="translate(0 153.61)" stroke="url(#paint15_linear)"/>
</g>
<g id="Vector_17">
<path d="M 1.18485e-08 143.638C 294.997 -329.097 126.03 542.818 414.666 236.276C 535.925 107.457 425.4 258.144 657.581 104.674C 889.763 -48.7961 1258.31 137.276 1440 35.4931" stroke-miterlimit="10" transform="translate(0 159.929)" stroke="url(#paint16_linear)"/>
</g>
<g id="Vector_18">
<path d="M 1.18485e-08 144.899C 293.009 -324.257 133.584 523.008 412.281 215.67C 529.961 86.0557 437.725 245.489 662.352 102.357C 886.98 -40.7756 1246.78 128.995 1439.6 20.4533" stroke-miterlimit="10" transform="translate(0 165.824)" stroke="url(#paint17_linear)"/>
</g>
<g id="Vector_19">
<path d="M 0 146.255C 290.624 -319.323 141.138 503.291 410.293 194.363C 524.395 63.556 450.447 232.134 667.521 98.9415C 884.594 -34.2512 1235.65 119.219 1439.6 4.31506" stroke-miterlimit="10" transform="translate(0 171.625)" stroke="url(#paint18_linear)"/>
</g>
<g id="Vector_20">
<path d="M 1.18485e-08 159.036C 288.239 -302.566 148.294 494.602 407.907 184.88C 518.432 53.2771 462.772 230.602 672.689 107.349C 882.606 -15.9036 1224.12 121.265 1440 -3.03337e-06" stroke-miterlimit="10" transform="translate(0 166.397)" stroke="url(#paint19_linear)"/>
</g>
<g id="Vector_21">
<path d="M 1.18485e-08 176.133C 286.251 -281.892 155.848 490.229 405.919 179.711C 512.866 46.9157 475.494 233.783 677.858 120.072C 880.221 6.36145 1212.99 127.626 1440 -3.03337e-06" stroke-miterlimit="10" transform="translate(0 156.458)" stroke="url(#paint20_linear)"/>
</g>
<g id="Vector_22">
<path d="M 1.18485e-08 192.831C 283.865 -261.614 163.004 485.855 403.534 174.145C 506.902 40.5542 487.819 236.169 682.628 132.795C 877.438 29.4217 1201.46 133.988 1439.6 6.06675e-06" stroke-miterlimit="10" transform="translate(0 146.916)" stroke="url(#paint21_linear)"/>
</g>
<g id="Vector_23">
<path d="M 1.18485e-08 209.928C 281.877 -240.94 170.16 481.482 401.546 168.578C 501.336 33.7952 500.144 238.554 687.797 145.12C 875.45 51.6867 1190.33 139.952 1439.6 0" stroke-miterlimit="10" transform="translate(0 137.373)" stroke="url(#paint22_linear)"/>
</g>
<g id="Vector_24">
<path d="M 1.18485e-08 227.024C 279.492 -220.265 177.714 477.108 399.161 163.41C 494.975 27.8313 512.468 241.735 692.568 157.843C 872.667 73.9518 1178.8 146.711 1439.6 0" stroke-miterlimit="10" transform="translate(0 127.434)" stroke="url(#paint23_linear)"/>
</g>
<g id="Vector_25">
<path d="M 1.18485e-08 244.12C 277.107 -199.59 184.87 472.735 397.173 158.241C 489.409 21.4699 525.19 244.518 697.736 170.566C 870.282 96.6144 1167.27 153.072 1439.6 0" stroke-miterlimit="10" transform="translate(0 117.494)" stroke="url(#paint24_linear)"/>
</g>
<g id="Vector_26">
<path d="M 1.18485e-08 260.819C 275.119 -178.916 192.027 467.964 395.185 152.675C 483.843 14.7108 537.913 246.904 703.302 183.289C 868.691 119.675 1156.53 159.434 1440 3.03337e-06" stroke-miterlimit="10" transform="translate(0 108.349)" stroke="url(#paint25_linear)"/>
</g>
<g id="Vector_27">
<path d="M 1.18485e-08 277.916C 272.733 -158.241 199.183 463.59 392.8 147.506C 477.88 8.74698 550.237 250.084 708.073 196.012C 865.908 141.94 1145 165.795 1439.6 3.03337e-06" stroke-miterlimit="10" transform="translate(0 98.4096)" stroke="url(#paint26_linear)"/>
</g>
<g id="Vector_28">
<path d="M 1.18485e-08 295.012C 270.745 -137.566 206.339 459.614 390.812 142.337C 472.314 2.38554 562.96 252.867 713.241 208.735C 863.523 164.602 1133.47 172.157 1440 3.03337e-06" stroke-miterlimit="10" transform="translate(0 88.4698)" stroke="url(#paint27_linear)"/>
</g>
<g id="Vector_29">
<path d="M 1.18485e-08 312.108C 268.36 -116.892 213.495 454.843 388.426 136.771C 465.953 -4.37349 575.284 255.253 718.012 221.458C 860.74 187.663 1121.94 178.916 1439.6 -3.03337e-06" stroke-miterlimit="10" transform="translate(0 78.9276)" stroke="url(#paint28_linear)"/>
</g>
<g id="Vector_30">
<path d="M 1.18485e-08 328.807C 265.975 -96.6145 220.254 450.072 386.438 131.205C 460.387 -10.7349 587.609 258.036 723.181 233.783C 858.752 209.53 1110.81 184.88 1439.6 -1.51669e-06" stroke-miterlimit="10" transform="translate(0 69.3856)" stroke="url(#paint29_linear)"/>
</g>
<g id="Vector_31">
<path d="M 1.18485e-08 345.904C 263.987 -75.5422 227.41 446.096 384.053 126.036C 454.025 -17.0964 599.934 260.819 727.951 246.506C 855.969 232.193 1099.28 191.241 1439.6 -1.51669e-06" stroke-miterlimit="10" transform="translate(0 59.4458)" stroke="url(#paint30_linear)"/>
</g>
<g id="Vector_32">
<path d="M 1.18485e-08 363.398C 261.601 -54.8674 234.169 441.723 382.065 120.867C 448.459 -23.4578 612.656 263.602 733.12 259.229C 853.584 254.855 1087.75 197.602 1439.6 -1.51669e-06" stroke-miterlimit="10" transform="translate(0 49.506)" stroke="url(#paint31_linear)"/>
</g>
<g id="Vector_33">
<path d="M 1.18485e-08 380.096C 259.613 -34.1928 241.325 436.952 380.077 115.301C 442.496 -29.8193 625.378 266.386 738.686 271.952C 851.596 277.518 1076.62 203.964 1439.6 0" stroke-miterlimit="10" transform="translate(0 39.9638)" stroke="url(#paint32_linear)"/>
</g>
<g id="Vector_34">
<path d="M 1.18485e-08 397.193C 257.228 -13.5181 248.084 432.578 377.692 110.133C 436.532 -36.1807 637.703 269.169 743.457 284.675C 849.21 300.181 1065.49 210.723 1439.6 0" stroke-miterlimit="10" transform="translate(0 30.024)" stroke="url(#paint33_linear)"/>
</g>
<g id="Vector_35">
<path d="M 1.18485e-08 414.289C 254.843 7.15664 254.843 428.205 375.704 104.964C 430.569 -42.5422 650.425 271.952 748.625 297.398C 846.825 322.843 1054.36 217.084 1440 -3.79172e-07" stroke-miterlimit="10" transform="translate(0 20.482)" stroke="url(#paint34_linear)"/>
</g>
<g id="Vector_36">
<path d="M 1.18485e-08 430.988C 252.855 27.4337 261.204 423.434 373.319 99.3976C 424.208 -48.9036 662.75 274.337 753.396 310.12C 844.042 345.904 1042.43 223.446 1439.6 1.89586e-07" stroke-miterlimit="10" transform="translate(0 10.9398)" stroke="url(#paint35_linear)"/>
</g>
<g id="Vector_37">
<path d="M 1.18485e-08 448.084C 250.469 48.1085 268.36 419.06 371.331 93.8313C 418.642 -55.6626 675.472 277.12 758.564 322.446C 841.657 367.771 1031.3 229.807 1439.6 1.18491e-08" stroke-miterlimit="10" transform="translate(0 1)" stroke="url(#paint36_linear)"/>
</g>
</g>
</g>
<defs>
<linearGradient id="paint0_linear" x2="1" gradientUnits="userSpaceOnUse" gradientTransform="translate(-0.795141 -408.253) scale(1441.18 1441.25)">
<stop stop-color="#D84378"/>
<stop offset="1" stop-color="#FFE989"/>
</linearGradient>
<linearGradient id="paint1_linear" x2="1" gradientUnits="userSpaceOnUse" gradientTransform="translate(-0.795114 -418.66) scale(1441.02 1441.09)">
<stop stop-color="#D84378"/>
<stop offset="1" stop-color="#FFE989"/>
</linearGradient>
<linearGradient id="paint2_linear" x2="1" gradientUnits="userSpaceOnUse" gradientTransform="translate(-0.795086 -429.037) scale(1441.02 1441.09)">
<stop stop-color="#D84378"/>
<stop offset="1" stop-color="#FFE989"/>
</linearGradient>
<linearGradient id="paint3_linear" x2="1" gradientUnits="userSpaceOnUse" gradientTransform="translate(-0.795058 -439.122) scale(1441.02 1441.09)">
<stop stop-color="#D84378"/>
<stop offset="1" stop-color="#FFE989"/>
</linearGradient>
<linearGradient id="paint4_linear" x2="1" gradientUnits="userSpaceOnUse" gradientTransform="translate(-0.79503 -449.654) scale(1441.02 1441.09)">
<stop stop-color="#D84378"/>
<stop offset="1" stop-color="#FFE989"/>
</linearGradient>
<linearGradient id="paint5_linear" x2="1" gradientUnits="userSpaceOnUse" gradientTransform="translate(-0.795002 -459.719) scale(1441.02 1441.09)">
<stop stop-color="#D84378"/>
<stop offset="1" stop-color="#FFE989"/>
</linearGradient>
<linearGradient id="paint6_linear" x2="1" gradientUnits="userSpaceOnUse" gradientTransform="translate(-0.794972 -469.743) scale(1441.02 1441.09)">
<stop stop-color="#D84378"/>
<stop offset="1" stop-color="#FFE989"/>
</linearGradient>
<linearGradient id="paint7_linear" x2="1" gradientUnits="userSpaceOnUse" gradientTransform="translate(-0.794943 -480.271) scale(1441.02 1441.09)">
<stop stop-color="#D84378"/>
<stop offset="1" stop-color="#FFE989"/>
</linearGradient>
<linearGradient id="paint8_linear" x2="1" gradientUnits="userSpaceOnUse" gradientTransform="translate(-0.794913 -490.206) scale(1441.02 1441.09)">
<stop stop-color="#D84378"/>
<stop offset="1" stop-color="#FFE989"/>
</linearGradient>
<linearGradient id="paint9_linear" x2="1" gradientUnits="userSpaceOnUse" gradientTransform="translate(-0.794883 -500.09) scale(1441.02 1441.09)">
<stop stop-color="#D84378"/>
<stop offset="1" stop-color="#FFE989"/>
</linearGradient>
<linearGradient id="paint10_linear" x2="1" gradientUnits="userSpaceOnUse" gradientTransform="translate(-0.794852 -510.322) scale(1441.02 1441.09)">
<stop stop-color="#D84378"/>
<stop offset="1" stop-color="#FFE989"/>
</linearGradient>
<linearGradient id="paint11_linear" x2="1" gradientUnits="userSpaceOnUse" gradientTransform="translate(-0.794821 -520.102) scale(1441.02 1441.09)">
<stop stop-color="#D84378"/>
<stop offset="1" stop-color="#FFE989"/>
</linearGradient>
<linearGradient id="paint12_linear" x2="1" gradientUnits="userSpaceOnUse" gradientTransform="translate(-0.794789 -529.823) scale(1441.02 1441.09)">
<stop stop-color="#D84378"/>
<stop offset="1" stop-color="#FFE989"/>
</linearGradient>
<linearGradient id="paint13_linear" x2="1" gradientUnits="userSpaceOnUse" gradientTransform="translate(-0.794757 -539.834) scale(1441.02 1441.09)">
<stop stop-color="#D84378"/>
<stop offset="1" stop-color="#FFE989"/>
</linearGradient>
<linearGradient id="paint14_linear" x2="1" gradientUnits="userSpaceOnUse" gradientTransform="translate(-0.794724 -549.582) scale(1441.02 1441.09)">
<stop stop-color="#D84378"/>
<stop offset="1" stop-color="#FFE989"/>
</linearGradient>
<linearGradient id="paint15_linear" x2="1" gradientUnits="userSpaceOnUse" gradientTransform="translate(-0.794691 -559.101) scale(1441.02 1441.09)">
<stop stop-color="#D84378"/>
<stop offset="1" stop-color="#FFE989"/>
</linearGradient>
<linearGradient id="paint16_linear" x2="1" gradientUnits="userSpaceOnUse" gradientTransform="translate(-0.794657 -568.891) scale(1441.02 1441.09)">
<stop stop-color="#D84378"/>
<stop offset="1" stop-color="#FFE989"/>
</linearGradient>
<linearGradient id="paint17_linear" x2="1" gradientUnits="userSpaceOnUse" gradientTransform="translate(-0.794623 -578.252) scale(1441.02 1441.09)">
<stop stop-color="#D84378"/>
<stop offset="1" stop-color="#FFE989"/>
</linearGradient>
<linearGradient id="paint18_linear" x2="1" gradientUnits="userSpaceOnUse" gradientTransform="translate(-0.794588 -587.514) scale(1441.02 1441.09)">
<stop stop-color="#D84378"/>
<stop offset="1" stop-color="#FFE989"/>
</linearGradient>
<linearGradient id="paint19_linear" x2="1" gradientUnits="userSpaceOnUse" gradientTransform="translate(-0.794553 -591.301) scale(1441.02 1441.09)">
<stop stop-color="#D84378"/>
<stop offset="1" stop-color="#FFE989"/>
</linearGradient>
<linearGradient id="paint20_linear" x2="1" gradientUnits="userSpaceOnUse" gradientTransform="translate(-0.794517 -592.54) scale(1441.02 1441.09)">
<stop stop-color="#D84378"/>
<stop offset="1" stop-color="#FFE989"/>
</linearGradient>
<linearGradient id="paint21_linear" x2="1" gradientUnits="userSpaceOnUse" gradientTransform="translate(-0.794481 -594.112) scale(1441.02 1441.09)">
<stop stop-color="#D84378"/>
<stop offset="1" stop-color="#FFE989"/>
</linearGradient>
<linearGradient id="paint22_linear" x2="1" gradientUnits="userSpaceOnUse" gradientTransform="translate(-0.794444 -595.613) scale(1441.02 1441.09)">
<stop stop-color="#D84378"/>
<stop offset="1" stop-color="#FFE989"/>
</linearGradient>
<linearGradient id="paint23_linear" x2="1" gradientUnits="userSpaceOnUse" gradientTransform="translate(-0.794406 -596.64) scale(1441.02 1441.09)">
<stop stop-color="#D84378"/>
<stop offset="1" stop-color="#FFE989"/>
</linearGradient>
<linearGradient id="paint24_linear" x2="1" gradientUnits="userSpaceOnUse" gradientTransform="translate(-0.794368 -597.581) scale(1441.02 1441.09)">
<stop stop-color="#D84378"/>
<stop offset="1" stop-color="#FFE989"/>
</linearGradient>
<linearGradient id="paint25_linear" x2="1" gradientUnits="userSpaceOnUse" gradientTransform="translate(-0.794329 -590.54) scale(1441.02 1441.09)">
<stop stop-color="#D84378"/>
<stop offset="1" stop-color="#FFE989"/>
</linearGradient>
<linearGradient id="paint26_linear" x2="1" gradientUnits="userSpaceOnUse" gradientTransform="translate(-0.794289 -581.818) scale(1441.02 1441.09)">
<stop stop-color="#D84378"/>
<stop offset="1" stop-color="#FFE989"/>
</linearGradient>
<linearGradient id="paint27_linear" x2="1" gradientUnits="userSpaceOnUse" gradientTransform="translate(-0.794249 -573.097) scale(1441.02 1441.09)">
<stop stop-color="#D84378"/>
<stop offset="1" stop-color="#FFE989"/>
</linearGradient>
<linearGradient id="paint28_linear" x2="1" gradientUnits="userSpaceOnUse" gradientTransform="translate(-0.794208 -564.773) scale(1441.02 1441.09)">
<stop stop-color="#D84378"/>
<stop offset="1" stop-color="#FFE989"/>
</linearGradient>
<linearGradient id="paint29_linear" x2="1" gradientUnits="userSpaceOnUse" gradientTransform="translate(-0.794167 -556.449) scale(1441.02 1441.09)">
<stop stop-color="#D84378"/>
<stop offset="1" stop-color="#FFE989"/>
</linearGradient>
<linearGradient id="paint30_linear" x2="1" gradientUnits="userSpaceOnUse" gradientTransform="translate(-0.794124 -547.727) scale(1441.02 1441.09)">
<stop stop-color="#D84378"/>
<stop offset="1" stop-color="#FFE989"/>
</linearGradient>
<linearGradient id="paint31_linear" x2="1" gradientUnits="userSpaceOnUse" gradientTransform="translate(-0.794081 -539.005) scale(1441.02 1441.09)">
<stop stop-color="#D84378"/>
<stop offset="1" stop-color="#FFE989"/>
</linearGradient>
<linearGradient id="paint32_linear" x2="1" gradientUnits="userSpaceOnUse" gradientTransform="translate(-0.794037 -530.681) scale(1441.02 1441.09)">
<stop stop-color="#D84378"/>
<stop offset="1" stop-color="#FFE989"/>
</linearGradient>
<linearGradient id="paint33_linear" x2="1" gradientUnits="userSpaceOnUse" gradientTransform="translate(-0.793993 -521.96) scale(1441.02 1441.09)">
<stop stop-color="#D84378"/>
<stop offset="1" stop-color="#FFE989"/>
</linearGradient>
<linearGradient id="paint34_linear" x2="1" gradientUnits="userSpaceOnUse" gradientTransform="translate(-0.793948 -513.635) scale(1441.02 1441.09)">
<stop stop-color="#D84378"/>
<stop offset="1" stop-color="#FFE989"/>
</linearGradient>
<linearGradient id="paint35_linear" x2="1" gradientUnits="userSpaceOnUse" gradientTransform="translate(-0.793901 -505.311) scale(1441.02 1441.09)">
<stop stop-color="#D84378"/>
<stop offset="1" stop-color="#FFE989"/>
</linearGradient>
<linearGradient id="paint36_linear" x2="1" gradientUnits="userSpaceOnUse" gradientTransform="translate(-0.793854 -496.59) scale(1441.02 1441.09)">
<stop stop-color="#D84378"/>
<stop offset="1" stop-color="#FFE989"/>
</linearGradient>
</defs>
</svg>