<?xml version="1.0" encoding="utf-8"?>
<!-- Generator: Adobe Illustrator 22.1.0, SVG Export Plug-In . SVG Version: 6.00 Build 0)  -->
<svg version="1.1" id="Layer_1" xmlns="http://www.w3.org/2000/svg" xmlns:xlink="http://www.w3.org/1999/xlink" x="0px" y="0px"
	 viewBox="0 0 1920 1080" style="enable-background:new 0 0 1920 1080;" xml:space="preserve">
<style type="text/css">
	.st0{fill:none;stroke:#76328A;stroke-miterlimit:10;}
	.st1{fill:none;stroke:#77388E;stroke-miterlimit:10;}
	.st2{fill:none;stroke:#783F92;stroke-miterlimit:10;}
	.st3{fill:none;stroke:#794596;stroke-miterlimit:10;}
	.st4{fill:none;stroke:#794B9B;stroke-miterlimit:10;}
	.st5{fill:none;stroke:#7A519F;stroke-miterlimit:10;}
	.st6{fill:none;stroke:#7B58A3;stroke-miterlimit:10;}
	.st7{fill:none;stroke:#7C5EA7;stroke-miterlimit:10;}
	.st8{fill:none;stroke:#7D64AB;stroke-miterlimit:10;}
	.st9{fill:none;stroke:#7E6AAF;stroke-miterlimit:10;}
	.st10{fill:none;stroke:#7E71B4;stroke-miterlimit:10;}
	.st11{fill:none;stroke:#7F77B8;stroke-miterlimit:10;}
	.st12{fill:none;stroke:#807DBC;stroke-miterlimit:10;}
	.st13{fill:none;stroke:#8183C0;stroke-miterlimit:10;}
	.st14{fill:none;stroke:#828AC4;stroke-miterlimit:10;}
	.st15{fill:none;stroke:#8390C8;stroke-miterlimit:10;}
	.st16{fill:none;stroke:#8496CC;stroke-miterlimit:10;}
	.st17{fill:none;stroke:#849DD1;stroke-miterlimit:10;}
	.st18{fill:none;stroke:#85A3D5;stroke-miterlimit:10;}
	.st19{fill:none;stroke:#86A9D9;stroke-miterlimit:10;}
	.st20{fill:none;stroke:#87AFDD;stroke-miterlimit:10;}
	.st21{fill:none;stroke:#88B6E1;stroke-miterlimit:10;}
	.st22{fill:none;stroke:#89BCE5;stroke-miterlimit:10;}
	.st23{fill:none;stroke:#89C2EA;stroke-miterlimit:10;}
	.st24{fill:none;stroke:#8AC8EE;stroke-miterlimit:10;}
	.st25{fill:none;stroke:#8BCFF2;stroke-miterlimit:10;}
	.st26{fill:none;stroke:#8CD5F6;stroke-miterlimit:10;}
</style>
<g>
	<path class="st0" d="M-0.5,618.5c455,30,389.7-418.9,610-349c253.5,80.4,365.1,308.5,462,270c91.4-36.3,27.3-244.7,122-283
		c119.6-48.4,321,369.2,580,339c68.4-8,119.4-44.7,146-67"/>
	<path class="st1" d="M-0.5,613.2c445.9,24.3,388.7-407.4,604.6-338.7c248.7,79.2,358.7,302,455.7,267
		c92.4-33.4,35-235.2,130.1-273.3c41.2-16.5,90.7,19.5,150,72c121.7,107.6,264.8,270.2,433.5,247c67.1-9,117.8-45.5,146-67.8"/>
	<path class="st2" d="M-0.4,607.8c436.9,18.5,387.6-395.9,599.3-328.3c243.8,77.9,352.4,295.6,449.4,264
		c93.5-30.5,42.6-225.8,138.3-263.7c41.9-16.5,91.1,18.3,151.3,68.3c129.8,107.9,269.5,256.5,435.7,230.7
		c65.8-10.2,116.2-46.4,146.1-68.6"/>
	<path class="st3" d="M-0.4,602.5c427.8,12.8,386.6-384.5,593.9-318c238.9,76.6,346.1,289.2,443,261c94.6-27.5,50.3-216.3,146.4-254
		c42.6-16.6,91.7,17,152.6,64.7c138.1,108.1,274.2,243.1,437.9,214.3c64.5-11.3,114.7-47.2,146.1-69.4"/>
	<path class="st4" d="M-0.3,597.1c418.8,7.1,385.6-373,588.5-307.6c234,75.4,339.8,282.9,436.7,258
		c95.8-24.6,57.9-206.9,154.5-244.4c43.3-16.6,92.4,15.6,153.9,61.1c146.6,108.2,279,229.7,440.1,197.9
		c63.2-12.4,113.1-48.1,146.1-70.2"/>
	<path class="st5" d="M-0.3,591.8c409.7,1.3,384.5-361.5,583.1-297.3c229.1,74.1,333.6,276.6,430.4,255
		c97-21.6,65.6-197.5,162.6-234.7c44-16.7,93.2,14.2,155.2,57.4c155.2,108.3,283.7,216.3,442.3,181.6c61.9-13.5,111.5-48.9,146.2-71
		"/>
	<path class="st6" d="M-0.3,586.4c400.7-4.4,383.5-350,577.8-286.9c224.3,72.9,327.4,270.3,424.1,252
		c98.2-18.6,73.2-188.2,170.8-225.1c44.7-16.9,94.1,12.6,156.5,53.8c164,108.3,288.4,203,444.5,165.2c60.5-14.6,110-49.7,146.2-71.9
		"/>
	<path class="st7" d="M-0.2,581.1c391.6-10.1,382.5-338.5,572.4-276.6c219.4,71.6,321.2,264.1,417.8,249
		c99.4-15.5,80.8-178.8,178.9-215.4c45.4-16.9,95.1,10.9,157.8,50.1c173,108.2,293.1,189.6,446.6,148.9
		c59.2-15.7,108.4-50.6,146.2-72.7"/>
	<path class="st8" d="M-0.2,575.7c382.6-15.9,381.4-327.1,567-266.3c214.5,70.3,315,257.9,411.4,246
		c100.6-12.4,88.4-169.4,187-205.8c46.1-17,96.2,9.2,159.1,46.5c182.1,107.9,297.9,176.3,448.8,132.5
		c57.9-16.8,106.8-51.4,146.2-73.5"/>
	<path class="st9" d="M-0.2,570.4c373.5-21.6,380.4-315.6,561.7-255.9c209.6,69.1,308.9,251.8,405.1,243
		c101.9-9.3,96.1-159.9,195.1-196.1c46.8-17.1,97.3,7.4,160.5,42.9c191.4,107.4,302.6,163,451,116.1
		c56.6-17.9,105.3-52.3,146.3-74.3"/>
	<path class="st10" d="M-0.1,565c364.5-27.4,379.4-304.1,556.3-245.6c204.7,67.8,302.8,245.7,398.8,240
		c103.2-6.1,103.7-150.5,203.3-186.5c47.5-17.1,98.4,5.5,161.8,39.2c200.7,106.8,307.3,149.7,453.2,99.8
		c55.3-18.9,103.7-53.1,146.3-75.1"/>
	<path class="st11" d="M-0.1,559.7c355.4-33.1,378.4-292.6,550.9-235.2c199.9,66.5,296.7,233.4,392.5,237
		c104.5,3.9,111.4-141.1,211.4-176.8c48.2-17.2,99.6,3.6,163.1,35.6c210.2,106,312,136.5,455.4,83.4c54-20,102.1-54,146.3-75.9"/>
	<path class="st12" d="M0,554.3c346.4-38.8,377.3-281.2,545.5-224.9c195,65.3,290.8,227.4,386.2,234
		c105.6,7.3,119-131.6,219.5-167.1c48.9-17.3,100.9,1.6,164.4,31.9c219.8,105,316.7,123.3,457.6,67.1c52.6-21,100.5-54.8,146.4-76.7
		"/>
	<path class="st13" d="M0,549c337.3-44.6,376.3-269.7,540.2-214.5c190.1,64,284.4,227.7,379.8,231
		c107.1,3.8,126.7-122.2,227.6-157.5c49.6-17.3,102.1-0.5,165.7,28.3c229.5,103.8,321.4,110.1,459.8,50.7
		c51.3-22,99-55.7,146.4-77.5"/>
	<path class="st14" d="M0,543.7c328.3-50.3,375.3-258.2,534.8-204.2c185.2,62.7,278.3,221.8,373.5,228
		c108.4,7.1,134.3-112.7,235.8-147.8c50.3-17.4,103.4-2.6,167,24.7c239.2,102.4,326.2,96.9,461.9,34.4c50-23,97.4-56.5,146.4-78.3"
		/>
	<path class="st15" d="M0.1,538.3c319.2-56,374.2-246.7,529.4-193.9c180.3,61.5,272.2,215.9,367.2,225
		c109.7,10.6,142-103.3,243.9-138.2c51-17.4,104.6-4.7,168.3,21c249.1,100.7,330.9,83.8,464.1,18c48.7-24,95.8-57.4,146.5-79.1"/>
	<path class="st16" d="M0.1,533c310.2-61.8,373.2-235.2,524-183.5C699.6,409.7,790.2,559.5,885,571.5c111,14,149.7-93.8,252-128.5
		c51.7-17.5,105.9-6.9,169.6,17.4c258.9,98.8,335.7,70.7,466.3,1.6c47.4-25,94.3-58.2,146.5-80"/>
	<path class="st17" d="M0.2,527.6c301.1-67.5,372.2-223.8,518.7-173.2c170.6,59,259.9,204.3,354.6,219.1
		c112.2,17.5,157.3-84.4,260.1-118.9c52.4-17.6,107.2-9.2,170.9,13.7c268.9,96.7,340.5,57.6,468.5-14.7c46.1-26,92.7-59,146.5-80.8"
		/>
	<path class="st18" d="M0.2,522.3C292.3,449,371.3,310,513.5,359.4c165.7,57.7,253.7,198.5,348.2,216.1
		c113.5,21.1,165-74.9,268.3-109.2c53.1-17.6,108.5-11.5,172.3,10.1c278.8,94.3,345.2,44.5,470.7-31.1c44.8-27,91.1-59.9,146.6-81.6
		"/>
	<path class="st19" d="M0.2,516.9c283-79,370.1-200.8,507.9-152.5C669,420.9,755.7,557.2,850.1,577.5
		c114.7,24.7,172.7-65.3,276.4-99.6c53.8-17.6,109.8-13.8,173.6,6.5c288.9,91.7,350.1,31.5,472.9-47.4c43.5-28,89.6-60.7,146.6-82.4
		"/>
	<path class="st20" d="M0.3,511.6c274-84.7,369.1-189.3,502.6-142.1c155.9,55.2,241.4,187,335.6,210.1
		c115.9,28.3,180.3-55.8,284.5-89.9c54.5-17.6,111-16.1,174.9,2.8c298.9,88.8,354.9,18.5,475.1-63.8c42.3-28.9,88-61.6,146.6-83.2"
		/>
	<path class="st21" d="M0.3,506.2c264.9-90.4,368-177.8,497.2-131.8c151,53.9,235.1,181.3,329.3,207.1c117.1,32,188-46.4,292.6-80.2
		c55.2-17.7,112.3-18.5,176.2-0.8c308.9,85.6,359.8,5.5,477.3-80.2c41-29.9,86.4-62.4,146.7-84"/>
	<path class="st22" d="M0.3,500.9c255.9-96.2,367-166.4,491.8-121.5c146.2,52.6,228.9,175.7,323,204.1
		c118.2,35.7,195.6-36.9,300.8-70.6c55.9-17.7,113.6-20.9,177.5-4.5c319,82.2,364.7-7.5,479.4-96.5c39.8-30.8,84.8-63.3,146.7-84.8"
		/>
	<path class="st23" d="M0.4,495.5c246.8-101.9,366-154.9,486.4-111.1c141.3,51.4,222.6,170,316.6,201.1
		c119.3,39.4,203.3-27.5,308.9-60.9c56.6-17.8,114.8-23.4,178.8-8.1c329.1,78.5,369.6-20.4,481.6-112.9
		c38.5-31.8,83.3-64.1,146.7-85.6"/>
	<path class="st24" d="M0.4,490.2c237.8-107.6,364.9-143.4,481.1-100.8c136.4,50.1,216.3,164.4,310.3,198.1
		c120.4,43.2,210.9-18.1,317-51.3c57.3-17.9,116-25.8,180.1-11.7c339.1,74.5,374.6-33.4,483.8-129.2c37.3-32.7,81.7-65,146.7-86.4"
		/>
	<path class="st25" d="M0.5,484.8c228.7-113.4,363.9-131.9,475.7-90.4c131.5,48.8,210,158.7,304,195.1
		c121.4,46.9,218.6-8.6,325.1-41.6c58-17.9,117.2-28.3,181.4-15.4c349.1,70.3,379.6-46.3,486-145.6c36.1-33.7,80.1-65.8,146.8-87.2"
		/>
	<path class="st26" d="M0.5,479.5c478.6-259.5,594.2,40,768,112c189.6,78.6,334.5-84.3,516-51c480,88,364-165,635-250"/>
</g>
</svg>
